<svg width="410" height="404" viewBox="0 0 410 404" fill="none" xmlns="http://www.w3.org/2000/svg">
<path d="M162.581 44.543C170.314 44.5746 173.893 49.3917 174.363 54.0014C174.578 56.1188 173.753 58.5188 175.061 60.5441C176.133 62.2041 179.479 64.7475 182.007 65.4573C185.133 65.2365 186.093 63.3033 188.67 61.7442C191.043 60.1395 196.152 58.8621 199.519 59.0256C215.181 59.7864 221.315 73.3365 220.407 81.9733C219.715 88.566 216.627 95.112 208.864 99.4093C206.475 100.73 201.083 100.914 200.261 103.5C199.535 108.538 199.431 113.591 199.279 118.664C198.938 123.118 204.677 122.839 208.668 125.385C224.432 135.448 224.669 156.359 210.068 166.966C206.453 169.592 200.47 171.676 194.988 171.302C194.177 171.318 192.659 171.618 192.371 172.143C189.726 176.974 187.747 180.83 195.42 184.047C196.97 184.696 201.544 187.823 202.598 188.81C213.734 199.241 216.323 212.878 213.104 225.255C212.49 228.164 208.523 233.669 209.273 236.397C209.713 238 219.054 244.877 221.213 245.809C223.668 245.99 228.758 241.843 231.825 240.646C242.895 236.326 254.185 240.716 260.032 247.411C266.95 255.333 268.233 265.027 264.939 273.849C262.304 280.907 255.059 288.935 243.34 290.248C241.166 290.48 235.892 289.507 234.237 290.264C232.022 291.278 230.717 296.714 229.811 298.579C227.86 302.588 230.759 304.117 233.594 307.259C239.347 313.638 238.975 323.608 233.009 329.916C231.512 331.496 226.235 335.241 226.025 336.801C225.856 340.272 232.718 340.989 234.694 343.866C238.389 349.247 237.23 356.433 228.903 359.395C223.263 359.882 220.027 357.42 218.319 354.068C216.818 351.122 217.168 347.244 219.014 344.378C219.665 343.369 221.442 342.189 222.149 341.152C222.889 340.046 222.627 338.056 222.01 336.909C221.076 335.174 217.443 335.715 215.165 335.021C210.882 333.718 207.465 330.966 205.628 328.154C201.871 322.4 201.65 315.094 205.135 309.244C207.471 305.323 211.89 301.588 218.588 300.769C219.701 300.64 222.829 301.016 223.706 300.556C225.082 299.827 226.143 297.802 226.501 296.609C226.968 295.048 229.206 290.731 229.029 289.337C228.839 287.847 225.446 285.115 224.108 283.894C222.145 282.105 220.438 280.265 219.169 278.185C214.978 271.715 214.465 264.814 216.242 257.932C216.866 255.516 218.387 252.58 218.522 250.118C216.69 247.365 210.363 242.571 206.662 240.612C205.178 239.722 203.035 241.515 202.12 242.272C178.821 261.273 151.416 246.551 144.96 226.627C139.88 210.951 145.778 184.058 175.426 180.007C182.647 179.548 185.405 181.57 186.752 175.609C188.218 169.117 187.907 171.161 182.033 167.027C167.045 156.478 167.43 134.173 184.648 124.685C186.705 122.908 194.445 122.382 194.869 120.391C195.966 115.228 196.06 108.152 195.779 102.87C195.742 102.184 191.242 100.085 190.493 99.7302C177.632 93.6313 175.655 80.72 179.71 71.3478C180.597 69.2916 174.784 65.0397 171.683 64.2412C168.756 64.371 167.335 65.9159 165.721 66.1437C153.341 67.891 150.152 54.1462 154.858 48.885C157.233 46.2298 158.659 45.335 162.581 44.543ZM179.238 230.613C198.842 227.424 197.264 201.184 177.287 200.542C157.047 203.354 158.926 230.515 179.238 230.613Z" fill="white"/>
<path d="M224.664 222.006C236.002 222.841 237.092 236.852 225.527 239.059C214.382 238.052 213.189 224.654 224.664 222.006Z" fill="white"/>
<path d="M211.225 173.175C223.683 172.337 225.127 186.133 215.142 189.727C204.001 191.154 200.476 177.455 211.225 173.175Z" fill="white"/>
<path d="M175.467 107.014C187.11 106.101 189.82 119.775 178.888 123.745C166.992 124.12 165.317 110.971 175.467 107.014Z" fill="white"/>
<path d="M231.483 126.21C243.072 127.515 243.201 141.368 232.02 143.23C220.446 141.953 220.244 128.131 231.483 126.21Z" fill="white"/>
<path d="M244.777 295.478C256.464 295.324 258.115 309.365 247.236 312.33C235.118 312.005 234.244 298.763 244.777 295.478Z" fill="white"/>
<path d="M215.418 104.427C226.944 104.251 228.924 117.956 217.782 121.152C206.26 120.82 204.96 107.823 215.418 104.427Z" fill="white"/>
<path d="M158.016 166.074C168.329 166.725 169.106 177.85 159.883 180.788C149.595 180.454 148.463 169.065 158.016 166.074Z" fill="white"/>
<path d="M200.373 252.419C210.202 252.314 211.504 262.729 203.144 266.165C193.224 266.539 191.744 255.739 200.373 252.419Z" fill="white"/>
<path d="M211.484 284.17C220.873 283.625 221.798 292.7 214.945 296.257C205.709 296.997 204.591 287.904 211.484 284.17Z" fill="white"/>
<path d="M167.51 70.4807C176.006 70.2674 176.916 78.9144 170.021 81.7537C161.784 81.8635 161.043 73.6213 167.51 70.4807Z" fill="white"/>
<path d="M195.211 299.645C195.533 299.661 195.854 299.684 196.175 299.711C203.118 300.319 203.757 308.049 197.141 310.757C189.106 310.415 188.548 302.365 195.211 299.645Z" fill="white"/>
</svg>
