<svg width="1024" height="1024" viewBox="0 0 1024 1024" fill="none" xmlns="http://www.w3.org/2000/svg">
<path d="M431.049 135.827C445.778 135.887 452.595 145.063 453.489 153.843C453.9 157.876 452.329 162.448 454.819 166.305C456.861 169.467 463.234 174.312 468.051 175.664C474.005 175.243 475.833 171.561 480.743 168.591C485.262 165.535 494.993 163.102 501.406 163.413C531.239 164.862 542.922 190.672 541.193 207.123C539.876 219.681 533.994 232.149 519.205 240.334C514.655 242.85 504.385 243.2 502.819 248.127C501.437 257.722 501.239 267.347 500.95 277.01C500.3 285.493 511.231 284.962 518.832 289.811C548.859 308.98 549.311 348.81 521.5 369.013C514.614 374.017 503.218 377.985 492.776 377.272C491.231 377.303 488.34 377.874 487.79 378.875C482.754 388.077 478.983 395.421 493.598 401.548C496.551 402.786 505.263 408.742 507.271 410.621C528.483 430.49 533.413 456.465 527.283 480.041C526.113 485.582 518.556 496.067 519.985 501.264C520.824 504.317 538.616 517.416 542.729 519.192C547.404 519.536 557.1 511.636 562.942 509.357C584.027 501.129 605.533 509.489 616.669 522.242C629.846 537.331 632.291 555.796 626.016 572.6C620.997 586.044 607.197 601.336 584.874 603.836C580.734 604.278 570.688 602.426 567.536 603.867C563.316 605.799 560.832 616.152 559.106 619.706C555.389 627.341 560.912 630.253 566.311 636.239C577.27 648.39 576.56 667.38 565.196 679.395C562.346 682.405 552.293 689.537 551.894 692.51C551.571 699.12 564.643 700.486 568.406 705.966C575.445 716.215 573.237 729.904 557.376 735.546C546.633 736.474 540.468 731.784 537.216 725.398C534.356 719.787 535.023 712.4 538.54 706.942C539.78 705.02 543.165 702.771 544.51 700.797C545.92 698.69 545.423 694.9 544.246 692.716C542.468 689.411 535.548 690.44 531.208 689.119C523.05 686.637 516.541 681.395 513.042 676.038C505.886 665.079 505.465 651.163 512.104 640.02C516.554 632.55 524.969 625.437 537.729 623.877C539.848 623.631 545.806 624.347 547.477 623.471C550.097 622.083 552.118 618.225 552.8 615.953C553.691 612.98 557.954 604.757 557.616 602.101C557.254 599.263 550.791 594.06 548.242 591.735C544.504 588.325 541.252 584.821 538.834 580.859C530.852 568.537 529.875 555.391 533.26 542.282C534.448 537.681 537.345 532.088 537.603 527.398C534.114 522.156 522.062 513.024 515.011 509.293C512.186 507.597 508.103 511.013 506.361 512.453C461.981 548.646 409.782 520.605 397.484 482.654C387.808 452.794 399.043 401.57 455.515 393.855C469.269 392.979 474.523 396.831 477.088 385.476C479.881 373.11 479.289 377.005 468.099 369.13C439.552 349.037 440.284 306.55 473.081 288.478C476.999 285.094 491.742 284.092 492.549 280.299C494.64 270.465 494.819 256.987 494.282 246.926C494.213 245.62 485.64 241.621 484.213 240.946C459.717 229.329 455.951 204.736 463.675 186.884C465.364 182.967 454.292 174.868 448.386 173.348C442.811 173.595 440.104 176.537 437.029 176.971C413.448 180.3 407.374 154.119 416.338 144.098C420.862 139.04 423.578 137.336 431.049 135.827ZM462.776 490.247C500.117 484.172 497.111 434.191 459.059 432.969C420.507 438.325 424.087 490.06 462.776 490.247Z" fill="#CE1F2F"/>
<path d="M549.302 473.852C570.897 475.443 572.973 502.13 550.945 506.335C529.716 504.415 527.443 478.895 549.302 473.852Z" fill="#CE1F2F"/>
<path d="M523.704 380.841C547.435 379.244 550.183 405.523 531.165 412.369C509.945 415.087 503.231 388.993 523.704 380.841Z" fill="#CE1F2F"/>
<path d="M455.594 254.819C477.771 253.081 482.932 279.126 462.109 286.688C439.45 287.403 436.259 262.356 455.594 254.819Z" fill="#CE1F2F"/>
<path d="M562.291 291.384C584.365 293.869 584.61 320.255 563.313 323.802C541.267 321.37 540.883 295.042 562.291 291.384Z" fill="#CE1F2F"/>
<path d="M587.611 613.8C609.872 613.505 613.018 640.25 592.295 645.899C569.213 645.278 567.549 620.056 587.611 613.8Z" fill="#CE1F2F"/>
<path d="M531.69 249.893C553.645 249.558 557.416 275.662 536.193 281.749C514.246 281.116 511.769 256.361 531.69 249.893Z" fill="#CE1F2F"/>
<path d="M422.352 367.315C441.997 368.556 443.477 389.745 425.909 395.341C406.313 394.705 404.158 373.012 422.352 367.315Z" fill="#CE1F2F"/>
<path d="M503.033 531.781C521.756 531.582 524.236 551.42 508.312 557.965C489.416 558.677 486.597 538.105 503.033 531.781Z" fill="#CE1F2F"/>
<path d="M524.198 592.26C542.081 591.222 543.844 608.508 530.79 615.283C513.198 616.693 511.068 599.373 524.198 592.26Z" fill="#CE1F2F"/>
<path d="M440.437 185.233C456.621 184.826 458.353 201.297 445.22 206.705C429.532 206.914 428.12 191.215 440.437 185.233Z" fill="#CE1F2F"/>
<path d="M493.201 621.736C493.814 621.767 494.426 621.81 495.037 621.862C508.262 623.02 509.479 637.744 496.876 642.901C481.571 642.25 480.509 626.917 493.201 621.736Z" fill="#CE1F2F"/>
<path d="M610.311 807.871H630.396L653.563 856.461L676.628 807.871H696.631L696.63 887.41H680.497V848.251V833.934C678.087 838.268 675.362 844.842 673.229 849.437L659.37 879.336L647.662 879.334L626.558 833.91L626.547 887.412H610.311V807.871Z" fill="#0F171F"/>
<path d="M543.84 807.871H562.383L596.364 887.412L577.138 887.41L570.86 871.94H562.124H534.11L527.844 887.41L509.306 887.409L543.84 807.871ZM540.022 857.491H565.057L557.088 837.714C555.896 834.771 554.497 830.881 553.14 828.043C553.046 827.747 552.881 827.451 552.739 827.161L552.412 827.256L551.993 828.172C548.036 837.868 544.158 847.851 540.022 857.491Z" fill="#0F171F"/>
<path d="M551.993 828.172L552.412 827.256L552.739 827.161C552.881 827.451 553.046 827.747 553.14 828.043C553.035 828.441 552.913 828.77 552.768 829.162L551.993 828.172Z" fill="#121517" fill-opacity="0.0235294"/>
<path d="M401.141 807.477C415.581 805.756 428.71 813.199 436.365 820.458L425.885 833.217C417.565 823.965 402.735 817.959 389.956 828.191C377.04 838.535 377.841 860.09 393.747 868.996C401.551 873.366 412.243 872.218 419.234 867.648C421.907 865.936 423.43 864.662 425.738 862.705C426.469 862.932 426.558 863.227 427.089 863.759C430.054 867.116 433.407 870.637 436.475 873.975C435.735 874.743 434.949 875.491 434.122 876.219C421.639 887.263 403.546 892.633 384.569 883.625C351.359 867.86 355.307 811.556 401.141 807.477Z" fill="#0F171F"/>
<path d="M444.951 807.871H511.409L511.41 823.12L487.099 823.119V871.202V887.41H469.174L469.172 823.119H444.951V807.871Z" fill="#0F171F"/>
<path d="M327.063 807.871H345.06V887.41H327.062L327.063 807.871Z" fill="#0F171F"/>
</svg>
