<svg width="1546" height="1024" viewBox="0 0 1546 1024" fill="none" xmlns="http://www.w3.org/2000/svg">
<path d="M209.421 212.011C224.15 212.072 230.967 221.247 231.862 230.027C232.272 234.061 230.701 238.632 233.192 242.49C235.233 245.652 241.606 250.496 246.423 251.848C252.377 251.428 254.205 247.745 259.115 244.776C263.635 241.719 273.365 239.286 279.778 239.597C309.611 241.046 321.295 266.856 319.565 283.307C318.248 295.865 312.366 308.333 297.578 316.519C293.027 319.034 282.757 319.384 281.191 324.311C279.809 333.906 279.611 343.531 279.322 353.194C278.672 361.677 289.603 361.146 297.204 365.996C327.232 385.164 327.683 424.994 299.872 445.197C292.986 450.201 281.59 454.169 271.148 453.456C269.603 453.487 266.712 454.058 266.163 455.06C261.126 464.261 257.355 471.605 271.97 477.733C274.923 478.97 283.635 484.926 285.643 486.805C306.855 506.674 311.786 532.649 305.655 556.225C304.485 561.766 296.928 572.251 298.357 577.448C299.196 580.501 316.988 593.601 321.101 595.376C325.776 595.72 335.472 587.82 341.314 585.541C362.399 577.313 383.905 585.673 395.042 598.426C408.218 613.516 410.663 631.981 404.388 648.784C399.369 662.228 385.57 677.52 363.247 680.02C359.106 680.462 349.06 678.61 345.909 680.051C341.689 681.983 339.204 692.336 337.478 695.89C333.761 703.525 339.284 706.437 344.683 712.423C355.642 724.574 354.932 743.564 343.568 755.579C340.718 758.589 330.665 765.721 330.266 768.694C329.944 775.304 343.015 776.671 346.778 782.15C353.818 792.399 351.609 806.088 335.749 811.73C325.005 812.658 318.841 807.968 315.588 801.583C312.729 795.971 313.395 788.584 316.912 783.127C318.153 781.204 321.537 778.956 322.883 776.981C324.292 774.874 323.795 771.084 322.618 768.9C320.84 765.595 313.92 766.624 309.58 765.303C301.422 762.822 294.914 757.579 291.414 752.222C284.258 741.264 283.837 727.347 290.476 716.204C294.926 708.735 303.341 701.621 316.101 700.061C318.22 699.815 324.179 700.531 325.849 699.656C328.469 698.267 330.49 694.41 331.172 692.137C332.063 689.164 336.326 680.942 335.988 678.285C335.626 675.447 329.163 670.244 326.614 667.919C322.876 664.51 319.624 661.005 317.207 657.043C309.224 644.721 308.247 631.575 311.632 618.467C312.821 613.866 315.717 608.273 315.975 603.583C312.486 598.34 300.434 589.209 293.384 585.477C290.558 583.781 286.476 587.197 284.733 588.637C240.353 624.83 188.154 596.789 175.856 558.839C166.18 528.979 177.415 477.754 233.887 470.039C247.641 469.163 252.895 473.015 255.46 461.66C258.253 449.295 257.661 453.189 246.471 445.314C217.924 425.221 218.656 382.735 251.453 364.663C255.371 361.278 270.115 360.277 270.921 356.483C273.012 346.649 273.191 333.172 272.654 323.11C272.585 321.804 264.012 317.806 262.586 317.13C238.09 305.513 234.323 280.92 242.047 263.068C243.737 259.152 232.664 251.053 226.758 249.532C221.183 249.779 218.476 252.722 215.402 253.156C191.82 256.484 185.746 230.303 194.71 220.282C199.235 215.224 201.95 213.52 209.421 212.011ZM241.148 566.431C278.49 560.356 275.483 510.375 237.431 509.153C198.879 514.509 202.459 566.244 241.148 566.431Z" fill="#CE1F2F"/>
<path d="M1164.15 308.604H1212.72L1268.74 426.103L1324.51 308.604H1372.88L1372.88 500.943H1333.87V406.249V371.628C1328.04 382.108 1321.45 398.006 1316.29 409.118L1282.78 481.418L1254.47 481.412L1203.44 371.57L1203.41 500.946H1164.15V308.604Z" fill="#0F171F"/>
<path d="M1003.41 308.604H1048.25L1130.42 500.946L1083.93 500.943L1068.75 463.534H1047.62H979.88L964.728 500.943L919.898 500.94L1003.41 308.604ZM994.177 428.593H1054.71L1035.44 380.769C1032.56 373.653 1029.18 364.245 1025.9 357.383C1025.67 356.668 1025.27 355.952 1024.93 355.249L1024.14 355.479L1023.12 357.694C1013.55 381.141 1004.18 405.282 994.177 428.593Z" fill="#0F171F"/>
<path d="M1023.12 357.694L1024.14 355.479L1024.93 355.249C1025.27 355.952 1025.67 356.668 1025.9 357.383C1025.64 358.345 1025.35 359.14 1025 360.089L1023.12 357.694Z" fill="#121517" fill-opacity="0.0235294"/>
<path d="M658.336 307.651C693.255 303.489 725.004 321.488 743.515 339.041L718.173 369.893C698.052 347.521 662.191 332.997 631.289 357.74C600.057 382.753 601.995 434.878 640.458 456.414C659.328 466.983 685.183 464.206 702.088 453.155C708.553 449.015 712.236 445.934 717.817 441.201C719.586 441.751 719.801 442.464 721.085 443.751C728.253 451.868 736.362 460.382 743.782 468.454C741.991 470.312 740.09 472.121 738.091 473.881C707.905 500.587 664.153 513.573 618.264 491.79C537.956 453.668 547.502 317.514 658.336 307.651Z" fill="#0F171F"/>
<path d="M764.277 308.604H924.985L924.988 345.479L866.198 345.476V461.749V500.943H822.852L822.849 345.476H764.277V308.604Z" fill="#0F171F"/>
<path d="M479.204 308.604H522.725V500.943H479.201L479.204 308.604Z" fill="#0F171F"/>
<path d="M1265.9 574.137C1303.97 569.994 1311.58 618.187 1276.62 627.65C1240.42 631.956 1230.64 584.571 1265.9 574.137ZM1276.11 618.967C1297.02 610.693 1292.65 580 1267.01 582.593C1245.19 591.472 1251.53 622.613 1276.11 618.967Z" fill="#96999A"/>
<path d="M503.526 663.604C539.037 661.58 546.783 708.731 510.867 717.595C471.746 719.509 468.021 670.222 503.526 663.604ZM509.254 709.164C532.219 703.009 528.564 671.555 504.174 672.01C481.099 678.491 484.821 709.628 509.254 709.164Z" fill="#96999A"/>
<path d="M909.069 574.119C946.761 570.049 955.029 618.024 919.395 627.73C881.961 630.758 874.854 584.098 909.069 574.119ZM919.217 618.964C939.402 610.871 936.711 580.661 910.174 582.571C888.073 591.478 894.821 622.723 919.217 618.964Z" fill="#96999A"/>
<path d="M964.341 698.322C965.886 693.543 972.616 670.216 976.243 664.795C976.624 664.227 981.188 664.494 983.157 664.973C985.205 668.017 994.444 697.853 996.17 703.197L1008.61 664.473L1018.33 664.47C1013.25 681.461 1006.02 700.006 1000.33 717.15L992.137 717.196L979.308 679.504L966.488 717.187L958.331 717.159C953.217 700.193 946.039 681.522 940.268 664.473L950.222 664.467L960.978 698.154C961.507 699.563 961.54 700.835 962.864 701.603C963.681 700.196 963.853 699.797 964.341 698.322Z" fill="#96999A"/>
<path d="M661.629 664.467H671.525L687.379 689.105L703.363 664.473L713.114 664.467V716.861L703.925 716.855V686.249L703.916 679.409L687.204 704.238L670.763 679.593L670.735 716.852L661.629 716.858V664.467Z" fill="#96999A"/>
<path d="M1324.96 574.583L1333.51 574.579L1361.58 610.813L1361.63 574.579H1370.74L1370.73 627.088C1367.33 627.152 1366.35 627.263 1363.11 626.759C1359.44 623.264 1355.28 617.367 1352.21 613.386L1334.03 589.829L1333.99 627.085L1324.95 627.088L1324.96 574.583Z" fill="#96999A"/>
<path d="M895.401 664.031L903.998 664.027L927.184 716.865L917.365 716.861L912.054 704.266L904.268 704.235L887.173 704.232L881.927 716.849L872.357 716.855L895.401 664.031ZM890.616 696.016L900.493 696.019L908.571 696.013C905.718 689.376 902.76 681.842 899.603 675.336L890.616 696.016Z" fill="#96999A"/>
<path d="M760.232 664.031L768.71 664.027L791.763 716.858L781.929 716.861L776.594 704.244L769.213 704.238H751.949L746.454 716.861L737.077 716.858C744.624 699.216 752.342 681.608 760.232 664.031ZM755.346 696.016L765.438 696.019C767.693 696.022 771.139 696.209 773.009 695.69C771.852 692.868 765.896 677.287 763.903 675.865L755.346 696.016Z" fill="#96999A"/>
<path d="M709.8 574.306L718.425 574.3C726.389 591.666 733.902 609.621 741.543 627.088H731.785C730.025 623.27 729.387 618.654 726.134 615.343C724.893 614.081 721.564 614.465 719.414 614.443H701.621L696.341 627.079L686.743 627.088C694.732 610.118 702.481 591.46 709.8 574.306ZM705.178 606.227H714.887L723.059 606.221C721.18 601.838 716.241 589.371 713.91 585.775C711.007 592.532 707.899 599.455 705.178 606.227Z" fill="#96999A"/>
<path d="M1095.38 574.306H1104L1127.1 627.088H1117.35C1116.41 624.956 1115.58 622.806 1114.86 620.641C1113.02 615.355 1112.78 614.514 1104.96 614.443H1087.22L1081.93 627.085H1072.33C1080.28 609.971 1088.04 591.564 1095.38 574.306ZM1090.75 606.23L1100.44 606.227L1108.6 606.224C1106.77 601.918 1101.71 589.132 1099.47 585.769L1090.75 606.23Z" fill="#96999A"/>
<path d="M838.946 574.073C840.604 573.996 842.269 573.953 843.934 573.947C852.134 573.962 856.96 576.889 862.227 580.427L857.196 587.356C852.22 584.049 842.632 579.073 836.36 584.279C826.513 592.673 846.809 595.846 854.641 599.393C866.613 604.817 866.195 616.32 858.67 623.614C855.522 626.664 849.435 627.573 844.13 628.025C833.135 626.612 830.208 624.818 822.993 619.499L828.626 612.827C831.919 615.45 835.626 618.129 840.614 619.17C846.815 620.466 852.482 619.185 854.245 614.879C857.522 607.492 843.178 605.499 835.853 602.756C823.982 598.309 822.962 589.685 827.133 581.797C829.302 577.703 833.166 575.833 838.946 574.073Z" fill="#96999A"/>
<path d="M777.14 574.045C788.437 573.603 792.439 575.2 800.074 580.427L795.09 587.485C790.206 584.153 779.809 578.723 774.057 584.509C772.478 586.128 771.934 588.094 772.543 589.976C774.177 595.032 786.299 596.902 793.148 599.664C805.538 604.655 803.143 616.418 796.634 623.491C793.883 626.486 787.519 627.539 782.199 628.034C771.514 626.781 767.705 624.763 760.945 619.468L766.501 612.858C786.548 628.535 800.566 612.609 788.495 608.039C771.477 601.595 756.98 599.111 765.045 581.865C766.996 577.688 771.474 575.654 777.14 574.045Z" fill="#96999A"/>
<path d="M539.341 574.14C552.607 572.737 557.675 575.464 565.672 581.846L559.619 588.726C544.864 576.201 532.523 582.381 528.404 595.821C524.961 607.047 535.435 628.574 556.455 615.629C557.776 614.449 557.813 614.176 559.699 613.488C562.687 614.366 564.008 616.605 566.004 618.712C562.487 622.121 558.998 625.012 553.255 626.827C548.675 628.292 543.399 628.47 538.62 627.321C511.945 620.979 509.528 583.161 539.341 574.14Z" fill="#96999A"/>
<path d="M987.644 574.073C1000.37 572.903 1005.89 575.482 1013.34 581.902L1007.44 588.64C980.442 567.356 967.069 603.162 981.698 615.288C988.934 621.286 995.501 621.003 1004.12 615.721C1005.45 614.495 1005.43 614.446 1007.18 613.512L1008.82 613.786C1010.87 615.404 1012.09 616.906 1013.7 618.706C1010.13 622.201 1006.63 625.196 1000.59 626.977C995.937 628.359 990.639 628.442 985.896 627.208C959.538 620.454 957.409 582.246 987.644 574.073Z" fill="#96999A"/>
<path d="M560.079 664.47L599.117 664.467V672.845L569.493 672.848V687.087H595.913C595.996 689.873 596.214 692.395 595.68 695.162L594.593 695.512L569.496 695.509L569.493 716.861H560.079V664.47Z" fill="#96999A"/>
<path d="M327.674 550.036C349.269 551.627 351.345 578.314 329.317 582.519C308.088 580.599 305.815 555.079 327.674 550.036Z" fill="#CE1F2F"/>
<path d="M302.076 457.025C325.806 455.428 328.555 481.707 309.537 488.553C288.317 491.271 281.602 465.177 302.076 457.025Z" fill="#CE1F2F"/>
<path d="M233.966 331.003C256.143 329.265 261.305 355.31 240.481 362.872C217.822 363.588 214.632 338.54 233.966 331.003Z" fill="#CE1F2F"/>
<path d="M340.663 367.568C362.737 370.053 362.983 396.439 341.686 399.987C319.639 397.554 319.255 371.226 340.663 367.568Z" fill="#CE1F2F"/>
<path d="M365.983 689.984C388.245 689.689 391.39 716.435 370.667 722.083C347.586 721.462 345.921 696.24 365.983 689.984Z" fill="#CE1F2F"/>
<path d="M310.063 326.077C332.017 325.742 335.788 351.846 314.565 357.933C292.618 357.3 290.142 332.545 310.063 326.077Z" fill="#CE1F2F"/>
<path d="M1140.54 574.579L1183.05 574.583V583.219L1166.46 583.222V615.751L1166.46 627.082L1157.17 627.088L1157.18 583.219L1140.54 583.222V574.579Z" fill="#96999A"/>
<path d="M586.773 574.583L629.262 574.579V583.219H612.683V615.751V627.085L603.417 627.088L603.42 583.219H586.773V574.583Z" fill="#96999A"/>
<path d="M815.6 664.467L824.808 664.47L824.811 708.427H852.448V716.861H815.6V664.467Z" fill="#96999A"/>
<path d="M200.724 443.499C220.369 444.74 221.849 465.929 204.281 471.525C184.685 470.889 182.53 449.196 200.724 443.499Z" fill="#CE1F2F"/>
<path d="M281.405 607.965C300.128 607.766 302.608 627.604 286.684 634.149C267.788 634.862 264.969 614.289 281.405 607.965Z" fill="#CE1F2F"/>
<path d="M1208.24 574.583L1217.49 574.579L1217.5 627.088L1208.24 627.091L1208.24 574.583Z" fill="#96999A"/>
<path d="M1043.32 664.47H1052.55V716.861L1043.32 716.858V664.47Z" fill="#96999A"/>
<path d="M1038.83 574.583L1048.01 574.579L1048.02 627.088H1038.83V574.583Z" fill="#96999A"/>
<path d="M482.14 574.583L491.277 574.579V627.088H482.137L482.14 574.583Z" fill="#96999A"/>
<path d="M302.571 668.444C320.453 667.406 322.216 684.692 309.163 691.467C291.57 692.877 289.441 675.557 302.571 668.444Z" fill="#CE1F2F"/>
<path d="M218.809 261.417C234.993 261.01 236.725 277.481 223.592 282.889C207.904 283.098 206.491 267.399 218.809 261.417Z" fill="#CE1F2F"/>
<path d="M271.573 697.92C272.186 697.951 272.798 697.994 273.409 698.046C286.634 699.204 287.851 713.928 275.248 719.085C259.943 718.434 258.881 703.102 271.573 697.92Z" fill="#CE1F2F"/>
<path d="M960.978 698.154L962.575 696.277C964.231 696.943 963.478 696.59 964.341 698.322C963.853 699.797 963.681 700.196 962.864 701.603C961.54 700.835 961.507 699.563 960.978 698.154Z" fill="#96999A" fill-opacity="0.0196078"/>
</svg>
