<svg width="1546" height="1024" viewBox="0 0 1546 1024" fill="none" xmlns="http://www.w3.org/2000/svg">
<path d="M209.421 212.011C224.15 212.072 230.967 221.247 231.862 230.027C232.272 234.061 230.701 238.632 233.191 242.49C235.233 245.652 241.606 250.496 246.423 251.848C252.377 251.428 254.205 247.745 259.115 244.776C263.634 241.719 273.365 239.286 279.778 239.597C309.611 241.046 321.294 266.856 319.565 283.307C318.248 295.865 312.366 308.333 297.578 316.519C293.027 319.034 282.757 319.384 281.191 324.311C279.809 333.906 279.611 343.531 279.322 353.194C278.672 361.677 289.603 361.146 297.204 365.996C327.231 385.164 327.683 424.994 299.872 445.197C292.986 450.201 281.59 454.169 271.148 453.456C269.603 453.487 266.712 454.058 266.163 455.06C261.126 464.261 257.355 471.605 271.97 477.733C274.923 478.97 283.635 484.926 285.643 486.805C306.855 506.674 311.785 532.649 305.655 556.225C304.485 561.766 296.928 572.251 298.357 577.448C299.196 580.501 316.988 593.601 321.101 595.376C325.776 595.72 335.472 587.82 341.314 585.541C362.399 577.313 383.905 585.673 395.042 598.426C408.218 613.516 410.663 631.981 404.388 648.784C399.369 662.228 385.569 677.52 363.247 680.02C359.106 680.462 349.06 678.61 345.909 680.051C341.688 681.983 339.204 692.336 337.478 695.89C333.761 703.525 339.284 706.437 344.683 712.423C355.642 724.574 354.932 743.564 343.568 755.579C340.718 758.589 330.665 765.721 330.266 768.694C329.944 775.304 343.015 776.671 346.778 782.15C353.817 792.399 351.609 806.088 335.748 811.73C325.005 812.658 318.84 807.968 315.588 801.583C312.728 795.971 313.395 788.584 316.912 783.127C318.152 781.204 321.537 778.956 322.882 776.981C324.292 774.874 323.795 771.084 322.618 768.9C320.84 765.595 313.92 766.624 309.58 765.303C301.422 762.822 294.913 757.579 291.414 752.222C284.258 741.264 283.837 727.347 290.476 716.204C294.926 708.735 303.341 701.621 316.101 700.061C318.22 699.815 324.179 700.531 325.849 699.656C328.469 698.267 330.49 694.41 331.172 692.137C332.063 689.164 336.326 680.942 335.988 678.285C335.626 675.447 329.163 670.244 326.614 667.919C322.876 664.51 319.624 661.005 317.206 657.043C309.224 644.721 308.247 631.575 311.632 618.467C312.821 613.866 315.717 608.273 315.975 603.583C312.486 598.34 300.434 589.209 293.384 585.477C290.558 583.781 286.475 587.197 284.733 588.637C240.353 624.83 188.154 596.789 175.856 558.839C166.18 528.979 177.415 477.754 233.887 470.039C247.641 469.163 252.895 473.015 255.46 461.66C258.253 449.295 257.661 453.189 246.471 445.314C217.924 425.221 218.656 382.735 251.453 364.663C255.371 361.278 270.114 360.277 270.921 356.483C273.012 346.649 273.191 333.172 272.654 323.11C272.585 321.804 264.012 317.806 262.586 317.13C238.089 305.513 234.323 280.92 242.047 263.068C243.736 259.152 232.664 251.053 226.758 249.532C221.183 249.779 218.476 252.722 215.401 253.156C191.82 256.484 185.746 230.303 194.71 220.282C199.235 215.224 201.95 213.52 209.421 212.011ZM241.148 566.431C278.49 560.356 275.483 510.375 237.431 509.153C198.879 514.509 202.459 566.244 241.148 566.431Z" fill="#CE1F2F"/>
<path d="M327.674 550.036C349.269 551.627 351.345 578.314 329.317 582.519C308.088 580.599 305.815 555.079 327.674 550.036Z" fill="#CE1F2F"/>
<path d="M302.076 457.025C325.806 455.428 328.555 481.707 309.537 488.553C288.316 491.271 281.602 465.177 302.076 457.025Z" fill="#CE1F2F"/>
<path d="M233.966 331.003C256.143 329.265 261.305 355.31 240.481 362.872C217.822 363.588 214.632 338.54 233.966 331.003Z" fill="#CE1F2F"/>
<path d="M340.663 367.568C362.737 370.053 362.982 396.439 341.685 399.987C319.639 397.554 319.255 371.226 340.663 367.568Z" fill="#CE1F2F"/>
<path d="M365.983 689.984C388.245 689.689 391.39 716.435 370.667 722.083C347.586 721.462 345.921 696.24 365.983 689.984Z" fill="#CE1F2F"/>
<path d="M310.063 326.077C332.017 325.742 335.789 351.846 314.565 357.933C292.618 357.3 290.142 332.545 310.063 326.077Z" fill="#CE1F2F"/>
<path d="M200.724 443.499C220.369 444.74 221.849 465.929 204.281 471.525C184.685 470.889 182.53 449.196 200.724 443.499Z" fill="#CE1F2F"/>
<path d="M281.405 607.965C300.128 607.766 302.608 627.604 286.684 634.149C267.788 634.862 264.969 614.289 281.405 607.965Z" fill="#CE1F2F"/>
<path d="M302.571 668.444C320.453 667.406 322.216 684.692 309.163 691.467C291.57 692.877 289.441 675.557 302.571 668.444Z" fill="#CE1F2F"/>
<path d="M218.809 261.417C234.993 261.01 236.725 277.481 223.592 282.889C207.904 283.098 206.491 267.399 218.809 261.417Z" fill="#CE1F2F"/>
<path d="M271.573 697.92C272.186 697.951 272.798 697.994 273.409 698.046C286.634 699.204 287.851 713.928 275.248 719.085C259.943 718.434 258.881 703.102 271.573 697.92Z" fill="#CE1F2F"/>
<path d="M1164.63 415.617H1213.2L1269.22 533.116L1325 415.617H1373.37L1373.37 607.957H1334.35V513.263V478.642C1328.53 489.122 1321.94 505.019 1316.78 516.131L1283.27 588.432L1254.95 588.426L1203.92 478.584L1203.89 607.96H1164.63V415.617Z" fill="#0F171F"/>
<path d="M1003.89 415.617H1048.73L1130.91 607.96L1084.41 607.957L1069.23 570.547H1048.11H980.365L965.214 607.957L920.384 607.953L1003.89 415.617ZM994.662 535.607H1055.2L1035.93 487.782C1033.05 480.666 1029.66 471.258 1026.38 464.397C1026.16 463.681 1025.76 462.966 1025.41 462.262L1024.62 462.493L1023.61 464.707C1014.04 488.154 1004.66 512.295 994.662 535.607Z" fill="#0F171F"/>
<path d="M1023.61 464.707L1024.62 462.493L1025.41 462.262C1025.76 462.966 1026.16 463.681 1026.38 464.397C1026.13 465.358 1025.83 466.154 1025.48 467.103L1023.61 464.707Z" fill="#121517" fill-opacity="0.0235294"/>
<path d="M658.821 414.665C693.74 410.503 725.489 428.502 744 446.055L718.658 476.907C698.538 454.535 662.676 440.01 631.775 464.753C600.542 489.767 602.48 541.891 640.943 563.428C659.813 573.996 685.668 571.22 702.573 560.169C709.039 556.029 712.721 552.948 718.302 548.215C720.071 548.765 720.286 549.477 721.57 550.764C728.738 558.882 736.847 567.396 744.267 575.467C742.477 577.326 740.576 579.135 738.576 580.895C708.391 607.6 664.639 620.586 618.749 598.804C538.442 560.682 547.987 424.527 658.821 414.665Z" fill="#0F171F"/>
<path d="M764.763 415.617H925.47L925.473 452.492L866.684 452.489V568.763V607.957H823.337L823.334 452.489H764.763V415.617Z" fill="#0F171F"/>
<path d="M479.689 415.617H523.211V607.957H479.686L479.689 415.617Z" fill="#0F171F"/>
</svg>
