<svg width="1546" height="1024" viewBox="0 0 1546 1024" fill="none" xmlns="http://www.w3.org/2000/svg">
<path d="M208.967 212.082C223.696 212.142 230.514 221.318 231.408 230.098C231.819 234.131 230.247 238.703 232.738 242.56C234.78 245.722 241.153 250.567 245.969 251.919C251.923 251.498 253.751 247.816 258.661 244.846C263.181 241.79 272.911 239.356 279.324 239.668C309.157 241.117 320.841 266.927 319.112 283.378C317.794 295.935 311.912 308.404 297.124 316.589C292.574 319.105 282.304 319.455 280.737 324.381C279.356 333.976 279.158 343.602 278.869 353.265C278.218 361.748 289.149 361.216 296.751 366.066C326.778 385.235 327.229 425.064 299.419 445.268C292.532 450.271 281.136 454.24 270.694 453.527C269.149 453.558 266.258 454.129 265.709 455.13C260.672 464.332 256.902 471.676 271.516 477.803C274.469 479.041 283.182 484.996 285.189 486.876C306.401 506.745 311.332 532.72 305.201 556.296C304.031 561.836 296.474 572.322 297.903 577.519C298.743 580.572 316.535 593.671 320.647 595.446C325.322 595.79 335.018 587.891 340.86 585.612C361.945 577.384 383.451 585.744 394.588 598.496C407.764 613.586 410.209 632.051 403.934 648.855C398.915 662.298 385.116 677.591 362.793 680.091C358.653 680.533 348.606 678.681 345.455 680.121C341.235 682.053 338.75 692.407 337.024 695.961C333.308 703.596 338.83 706.508 344.229 712.494C355.188 724.644 354.479 743.635 343.115 755.65C340.264 758.66 330.212 765.792 329.812 768.765C329.49 775.374 342.562 776.741 346.324 782.221C353.364 792.47 351.155 806.159 335.295 811.801C324.551 812.729 318.387 808.039 315.134 801.653C312.275 796.042 312.941 788.655 316.458 783.197C317.699 781.275 321.084 779.026 322.429 777.051C323.839 774.944 323.341 771.154 322.165 768.971C320.386 765.666 313.466 766.695 309.127 765.374C300.968 762.892 294.46 757.649 290.961 752.293C283.804 741.334 283.383 727.418 290.022 716.275C294.472 708.805 302.888 701.692 315.647 700.132C317.766 699.886 323.725 700.601 325.396 699.726C328.016 698.338 330.037 694.48 330.718 692.207C331.609 689.234 335.872 681.012 335.534 678.355C335.172 675.517 328.71 670.315 326.161 667.989C322.423 664.58 319.17 661.076 316.753 657.114C308.77 644.791 307.794 631.646 311.178 618.537C312.367 613.936 315.263 608.343 315.521 603.653C312.032 598.41 299.981 589.279 292.93 585.547C290.104 583.852 286.022 587.267 284.28 588.708C239.9 624.901 187.7 596.859 175.402 558.909C165.727 529.049 176.961 477.825 233.433 470.109C247.187 469.234 252.441 473.086 255.006 461.731C257.799 449.365 257.207 453.26 246.017 445.385C217.47 425.292 218.202 382.805 250.999 364.733C254.918 361.349 269.661 360.347 270.467 356.554C272.558 346.719 272.737 333.242 272.201 323.18C272.131 321.875 263.559 317.876 262.132 317.2C237.636 305.584 233.87 280.991 241.594 263.139C243.283 259.222 232.21 251.123 226.305 249.602C220.729 249.85 218.023 252.792 214.948 253.226C191.366 256.554 185.292 230.374 194.256 220.353C198.781 215.295 201.496 213.591 208.967 212.082ZM240.694 566.502C278.036 560.427 275.029 510.446 236.977 509.223C198.425 514.58 202.005 566.314 240.694 566.502Z" fill="white"/>
<path d="M327.22 550.107C348.815 551.698 350.891 578.385 328.863 582.59C307.634 580.67 305.362 555.15 327.22 550.107Z" fill="white"/>
<path d="M301.622 457.096C325.353 455.499 328.102 481.778 309.084 488.624C287.863 491.342 281.149 465.247 301.622 457.096Z" fill="white"/>
<path d="M233.512 331.074C255.689 329.335 260.851 355.381 240.028 362.942C217.369 363.658 214.178 338.611 233.512 331.074Z" fill="white"/>
<path d="M340.209 367.639C362.283 370.123 362.529 396.51 341.232 400.057C319.185 397.625 318.801 371.297 340.209 367.639Z" fill="white"/>
<path d="M365.53 690.054C387.791 689.759 390.936 716.505 370.213 722.153C347.132 721.533 345.467 696.311 365.53 690.054Z" fill="white"/>
<path d="M309.609 326.147C331.563 325.812 335.335 351.916 314.112 358.004C292.165 357.371 289.688 332.616 309.609 326.147Z" fill="white"/>
<path d="M200.271 443.569C219.916 444.81 221.395 466 203.828 471.596C184.231 470.96 182.076 449.267 200.271 443.569Z" fill="white"/>
<path d="M280.952 608.036C299.674 607.836 302.154 627.674 286.231 634.219C267.335 634.932 264.516 614.36 280.952 608.036Z" fill="white"/>
<path d="M302.117 668.515C319.999 667.477 321.762 684.762 308.709 691.538C291.116 692.948 288.987 675.628 302.117 668.515Z" fill="white"/>
<path d="M218.355 261.487C234.539 261.081 236.271 277.552 223.138 282.96C207.45 283.169 206.038 267.469 218.355 261.487Z" fill="white"/>
<path d="M271.119 697.991C271.732 698.021 272.344 698.064 272.955 698.117C286.18 699.275 287.397 713.999 274.794 719.156C259.489 718.504 258.427 703.172 271.119 697.991Z" fill="white"/>
<path d="M1164.18 415.688H1212.75L1268.77 533.187L1324.55 415.688H1372.92L1372.91 608.027H1333.9V513.333V478.713C1328.07 489.192 1321.48 505.09 1316.33 516.202L1282.81 588.502L1254.5 588.496L1203.47 478.654L1203.44 608.03H1164.18V415.688Z" fill="white"/>
<path d="M1003.44 415.688H1048.28L1130.45 608.03L1083.96 608.027L1068.78 570.618H1047.65H979.911L964.76 608.027L919.93 608.024L1003.44 415.688ZM994.209 535.678H1054.75L1035.48 487.853C1032.59 480.737 1029.21 471.329 1025.93 464.468C1025.7 463.752 1025.3 463.036 1024.96 462.333L1024.17 462.563L1023.16 464.778C1013.59 488.225 1004.21 512.366 994.209 535.678Z" fill="white"/>
<path d="M1023.16 464.778L1024.17 462.563L1024.96 462.333C1025.3 463.036 1025.7 463.752 1025.93 464.468C1025.67 465.429 1025.38 466.224 1025.03 467.174L1023.16 464.778Z" fill="#121517" fill-opacity="0.0235294"/>
<path d="M658.368 414.736C693.286 410.573 725.035 428.572 743.547 446.125L718.205 476.977C698.084 454.605 662.222 440.081 631.321 464.824C600.088 489.837 602.026 541.962 640.489 563.498C659.36 574.067 685.215 571.29 702.12 560.24C708.585 556.099 712.268 553.019 717.848 548.286C719.617 548.835 719.832 549.548 721.116 550.835C728.285 558.953 736.393 567.466 743.814 575.538C742.023 577.396 740.122 579.205 738.123 580.965C707.937 607.671 664.185 620.657 618.295 598.874C537.988 560.752 547.534 424.598 658.368 414.736Z" fill="white"/>
<path d="M764.309 415.688H925.016L925.019 452.563L866.23 452.56V568.833V608.027H822.884L822.88 452.56H764.309V415.688Z" fill="white"/>
<path d="M479.235 415.688H522.757V608.027H479.232L479.235 415.688Z" fill="white"/>
</svg>
