<svg width="512" height="512" viewBox="0 0 512 512" fill="none" xmlns="http://www.w3.org/2000/svg">
<path d="M195.326 31.0614C206.372 31.1066 211.485 37.9881 212.156 44.5735C212.464 47.5983 211.285 51.0269 213.154 53.9201C214.685 56.2916 219.465 59.925 223.077 60.939C227.542 60.6236 228.914 57.8619 232.596 55.6346C235.986 53.3422 243.283 51.5173 248.093 51.7509C270.468 52.8377 279.231 72.195 277.934 84.5332C276.946 93.9515 272.534 103.303 261.443 109.442C258.03 111.328 250.328 111.591 249.153 115.286C248.117 122.482 247.968 129.701 247.752 136.948C247.264 143.311 255.462 142.912 261.163 146.55C283.684 160.926 284.022 190.798 263.164 205.951C257.999 209.703 249.453 212.68 241.621 212.145C240.462 212.168 238.294 212.597 237.882 213.348C234.104 220.249 231.276 225.757 242.237 230.352C244.452 231.281 250.986 235.747 252.492 237.157C268.401 252.059 272.099 271.54 267.501 289.222C266.624 293.377 260.956 301.241 262.028 305.139C262.657 307.429 276.001 317.253 279.086 318.585C282.592 318.843 289.864 312.918 294.245 311.209C310.059 305.038 326.189 311.308 334.541 320.872C344.423 332.19 346.257 346.038 341.551 358.641C337.787 368.724 327.437 380.193 310.695 382.068C307.59 382.4 300.055 381.011 297.691 382.091C294.526 383.54 292.663 391.305 291.368 393.97C288.581 399.697 292.723 401.881 296.772 406.37C304.991 415.483 304.459 429.726 295.936 438.737C293.798 440.995 286.259 446.344 285.96 448.573C285.718 453.531 295.522 454.556 298.343 458.665C303.623 466.352 301.967 476.619 290.071 480.851C282.014 481.546 277.39 478.029 274.951 473.24C272.806 469.031 273.306 463.491 275.944 459.398C276.874 457.956 279.413 456.27 280.422 454.788C281.479 453.208 281.106 450.366 280.224 448.728C278.89 446.249 273.7 447.021 270.445 446.03C264.327 444.169 259.445 440.237 256.821 436.22C251.453 428.001 251.138 417.563 256.117 409.206C259.454 403.604 265.766 398.269 275.336 397.099C276.925 396.914 281.394 397.451 282.647 396.795C284.612 395.753 286.128 392.86 286.639 391.155C287.307 388.926 290.504 382.759 290.251 380.766C289.979 378.638 285.133 374.736 283.221 372.992C280.417 370.435 277.978 367.807 276.165 364.835C270.178 355.593 269.445 345.734 271.984 335.903C272.875 332.452 275.048 328.257 275.241 324.74C272.624 320.808 263.586 313.959 258.298 311.16C256.178 309.889 253.117 312.45 251.81 313.531C218.525 340.676 179.375 319.644 170.152 291.182C162.895 268.787 171.321 230.368 213.675 224.582C223.991 223.925 227.931 226.814 229.855 218.298C231.95 209.024 231.506 211.945 223.113 206.038C201.703 190.969 202.252 159.104 226.85 145.55C229.788 143.011 240.846 142.26 241.451 139.416C243.019 132.04 243.153 121.932 242.751 114.385C242.699 113.406 236.269 110.407 235.199 109.9C216.827 101.188 214.002 82.7429 219.795 69.3541C221.062 66.4166 212.758 60.3424 208.329 59.2017C204.147 59.3871 202.117 61.5941 199.811 61.9196C182.125 64.4157 177.569 44.7804 184.293 37.2644C187.686 33.4711 189.722 32.1929 195.326 31.0614ZM219.121 296.876C247.127 292.32 244.872 254.834 216.333 253.918C187.419 257.935 190.104 296.736 219.121 296.876Z" fill="#CE1F2F"/>
<path d="M284.016 284.58C300.212 285.773 301.769 305.789 285.248 308.942C269.326 307.502 267.622 288.362 284.016 284.58Z" fill="#CE1F2F"/>
<path d="M264.816 214.822C282.614 213.624 284.676 233.333 270.413 238.468C254.497 240.506 249.461 220.935 264.816 214.822Z" fill="#CE1F2F"/>
<path d="M213.734 120.305C230.367 119.002 234.238 138.536 218.621 144.207C201.626 144.744 199.233 125.958 213.734 120.305Z" fill="#CE1F2F"/>
<path d="M293.757 147.729C310.313 149.593 310.497 169.382 294.524 172.043C277.989 170.218 277.701 150.472 293.757 147.729Z" fill="#CE1F2F"/>
<path d="M312.748 389.541C329.444 389.32 331.802 409.379 316.261 413.615C298.949 413.15 297.701 394.233 312.748 389.541Z" fill="#CE1F2F"/>
<path d="M270.807 116.61C287.272 116.359 290.101 135.937 274.184 140.503C257.724 140.028 255.866 121.462 270.807 116.61Z" fill="#CE1F2F"/>
<path d="M188.803 204.677C203.537 205.608 204.647 221.5 191.471 225.697C176.773 225.22 175.157 208.95 188.803 204.677Z" fill="#CE1F2F"/>
<path d="M249.314 328.027C263.356 327.877 265.216 342.756 253.273 347.665C239.101 348.199 236.987 332.77 249.314 328.027Z" fill="#CE1F2F"/>
<path d="M265.188 373.386C278.599 372.607 279.922 385.572 270.132 390.653C256.937 391.711 255.34 378.721 265.188 373.386Z" fill="#CE1F2F"/>
<path d="M202.366 68.1154C214.505 67.8107 215.803 80.1636 205.954 84.2197C194.188 84.3766 193.128 72.602 202.366 68.1154Z" fill="#CE1F2F"/>
<path d="M241.939 395.493C242.399 395.516 242.858 395.548 243.316 395.587C253.235 396.456 254.148 407.499 244.696 411.367C233.217 410.878 232.421 399.379 241.939 395.493Z" fill="#CE1F2F"/>
</svg>
